<svg xmlns="http://www.w3.org/2000/svg"><symbol id="logo-16px" viewBox="0 0 16 16"><g data-name="Layer 1"><path d="M15.43 11c-1-1.44-.86-2.17-.67-2.64a3.49 3.49 0 0 0 .36-.84 1.67 1.67 0 0 0 0-.7 8 8 0 0 0-.4-1.35A6.3 6.3 0 0 0 11 1.74 6.48 6.48 0 0 0 5.83 2V.74a.28.28 0 0 0-.28-.28H3.76a.28.28 0 0 0-.28.28v3.37L.58 7a.28.28 0 0 0 .2.48h1.81a10.52 10.52 0 0 0 1.83 6.94v-.27A1.58 1.58 0 0 1 5 12.7a3.26 3.26 0 0 0 .42-.53c.2-.26.4-.52.58-.79l.15-.22c2 2 5.71 1.57 5.89 1.54v.38a16.86 16.86 0 0 0 .77 2.92c.89-.6 1.77.1 1.47-1.07 0-.14-.06-.26-.08-.36-.18-.9.15-.51.22-1 0-.2-.33-.37-.33-.37.19 0 .6-.36.48-.55a2 2 0 0 1-.14-.62.16.16 0 0 1 .09-.16 4.73 4.73 0 0 0 .85-.44.39.39 0 0 0 .06-.43zm-3.12-.44a2.07 2.07 0 0 1-.42.09 7 7 0 0 0-.06 1 6.7 6.7 0 0 1-5.19-1.48c.12-.38.22-.77.34-1.15a1 1 0 0 0-.36-1.21 14.07 14.07 0 0 1-1.1-1 1.7 1.7 0 0 1-.58-1.33 2.31 2.31 0 0 1 .45-1.17c.17 0 .36.09.55.16s.57.25.86.35a1.48 1.48 0 0 0 1.7-.12.38.38 0 0 1 .27 0 10.85 10.85 0 0 1 1.45.34 3.08 3.08 0 0 1 .87.49 5.5 5.5 0 0 1 .54.49.75.75 0 0 1 .37.47c.1.33.22.74.33 1.17s.21.87.28 1.27c.16.92.06 1.46-.3 1.58z"/><path d="M12 10.37a1.78 1.78 0 0 1-.35.08 3.76 3.76 0 0 1-2.55-.56 1 1 0 0 1 .05-.51l.07-.25v-.34l.05-.15v-.48L9.64 8l.06-.12v-.14a10.63 10.63 0 0 1 .71-1.3.61.61 0 0 1 1.11.13c.06.21.13.44.2.68.46 1.3.8 2.94.28 3.12z"/><circle cx="8.94" cy="5.78" r=".35"/><path d="M6.12 4.79s-.21.81-.85.69c-.35-.06.3-.87.3-.87z"/><ellipse cx="6.5" cy="12.67" rx=".86" ry=".65" transform="rotate(-69.61 6.502 12.67)"/></g></symbol><symbol id="invalid-paw" viewBox="0 0 120.68 116.42"><defs><style>.cls-1{fill:#231f20}</style></defs><g id="Layer_1" data-name="Layer 1"><path d="M94.3 73.5C83.9 59.09 68.67 43.78 60.12 43.68h-.34c-8.66 0-24.68 15.48-34.86 29.91a41.11 41.11 0 0 0-7.71 23.91c-.22 10.21 2.46 18.77 16.52 18.92 9.64.1 12.32-6.72 19.91-11.2a14.46 14.46 0 0 1 6.75-1.34 20.46 20.46 0 0 1 3.9.36 9.45 9.45 0 0 1 2.85 1c7.59 4.49 10 11.3 19.62 11.2 14.07-.15 15.58-8.35 15.57-18.56A41 41 0 0 0 94.3 73.5zm-29.71 22H56.3v-7.4h8.29zm.13-21.61l-1.3 8.29h-6.19L56 74.08V53.79h8.76z" class="cls-1"/><ellipse cx="13.01" cy="50.9" class="cls-1" rx="13.01" ry="19.35"/><ellipse cx="39.84" cy="21.56" class="cls-1" rx="14.5" ry="21.56"/><ellipse cx="107.67" cy="50.9" class="cls-1" rx="13.01" ry="19.35"/><ellipse cx="80.84" cy="21.56" class="cls-1" rx="14.5" ry="21.56"/></g></symbol><symbol id="logo-64px" viewBox="0 0 64 64"><g data-name="Layer 1"><path d="M61.78 43c-4.07-5.76-3.46-8.69-2.67-10.58A14 14 0 0 0 60.56 29a6.68 6.68 0 0 0 0-2.79A32.27 32.27 0 0 0 59 20.79 25.25 25.25 0 0 0 44.14 6a26 26 0 0 0-20.85 1.08V2A1.12 1.12 0 0 0 22.16.86H15A1.12 1.12 0 0 0 13.87 2v13.52L2.25 27.08a1.13 1.13 0 0 0 .8 1.92h7.26C9 41.73 14.08 51.36 17.67 56.85q-.06-.55-.11-1.1A6.33 6.33 0 0 1 19.79 50a13.06 13.06 0 0 0 1.69-2.12c.79-1 1.62-2.08 2.34-3.17l.59-.89c7.91 8.1 22.9 6.26 23.59 6.18.06.18.12.37.19.55s.06.66.15 1c.42 1.59 1.49 9 2.91 11.68 3.56-2.42 7.09.4 5.9-4.27-.14-.56-.25-1-.33-1.44-.73-3.6.59-2 .86-3.87.12-.8-1.33-1.47-1.33-1.47.77-.16 2.4-1.45 1.94-2.22a7.87 7.87 0 0 1-.57-2.47.66.66 0 0 1 .36-.66A19 19 0 0 0 61.54 45a1.55 1.55 0 0 0 .24-2zm-12.51-1.81a8.31 8.31 0 0 1-1.69.37 28 28 0 0 0-.24 4c-10.8.93-17.4-2.94-20.81-5.95.5-1.51.88-3.07 1.36-4.6a4.07 4.07 0 0 0-1.46-4.85 56.42 56.42 0 0 1-4.42-4 6.83 6.83 0 0 1-2.31-5.33 9.26 9.26 0 0 1 1.82-4.7c.67.19 1.46.35 2.21.63 1.17.43 2.28 1 3.45 1.41 3.32 1.18 4 1.18 6.82-.49a1.52 1.52 0 0 1 1.08-.18 43.52 43.52 0 0 1 5.81 1.35 12.34 12.34 0 0 1 3.49 2 22.05 22.05 0 0 1 2.15 1.95A3 3 0 0 1 48 24.61c.41 1.34.89 3 1.33 4.68s.85 3.49 1.11 5.11c.68 4.13.3 6.28-1.17 6.79z"/><path d="M48 40.62a7.14 7.14 0 0 1-1.39.31c-3.81.52-9.59-1-10.23-2.24a4 4 0 0 1 .22-2c.08-.31.18-.66.3-1l.13-.4v-.07l.1-.3.1-.28.1-.29.22-.59.18-.46.19-.47.2-.48.1-.24.1-.25.21-.49.22-.5.11-.25.15-.33A42.61 42.61 0 0 1 41.93 25l.11-.17a2.44 2.44 0 0 1 4.44.52c.26.83.53 1.76.8 2.72 1.48 5.27 2.85 11.83.72 12.55z"/><circle cx="35.76" cy="22.21" r="1.41"/><path d="M24.45 18.24S23.6 21.48 21 21c-1.41-.26 1.19-3.48 1.19-3.48z"/><ellipse cx="25.98" cy="49.84" rx="3.43" ry="2.6" transform="rotate(-69.61 25.981 49.842)"/></g></symbol><symbol id="toggle" viewBox="0 0 132.91 130.83"><path d="M15.68 90.79h101.56v17.57H15.68zm0-34.16h101.56V74.2H15.68zm0-34.15h101.56v17.57H15.68z" data-name="Layer 1"/></symbol><symbol id="logo-32px" viewBox="0 0 32 32"><g data-name="Layer 1"><path d="M29.43 21.25c-2-2.79-1.68-4.21-1.29-5.13a6.78 6.78 0 0 0 .7-1.63 3.24 3.24 0 0 0 0-1.35 15.64 15.64 0 0 0-.77-2.63 12.24 12.24 0 0 0-7.19-7.16 12.59 12.59 0 0 0-10.11.52V1.39a.54.54 0 0 0-.54-.54H6.76a.54.54 0 0 0-.54.54v6.56l-5.64 5.6a.55.55 0 0 0 .39.94h3.52A20.44 20.44 0 0 0 8.05 28L8 27.44a3.07 3.07 0 0 1 1.08-2.8 6.33 6.33 0 0 0 .82-1c.38-.51.78-1 1.13-1.54l.29-.43c3.83 3.94 11.1 3 11.45 3l.09.27c.06.15 0 .32.07.48.2.77.72 4.38 1.41 5.66 1.72-1.17 3.43.19 2.86-2.07-.07-.27-.12-.5-.16-.7-.35-1.74.29-1 .42-1.87.06-.39-.64-.71-.64-.71.37-.08 1.16-.7.94-1.08a3.81 3.81 0 0 1-.28-1.2.32.32 0 0 1 .18-.32 9.19 9.19 0 0 0 1.66-.85.75.75 0 0 0 .11-1.03zm-6.06-.86a4 4 0 0 1-.82.18 13.57 13.57 0 0 0-.12 1.92c-5.24.45-8.43-1.43-10.09-2.88.24-.73.43-1.49.66-2.23a2 2 0 0 0-.7-2.38 27.34 27.34 0 0 1-2.14-1.93A3.31 3.31 0 0 1 9 10.51a4.49 4.49 0 0 1 .88-2.28c.33.09.71.17 1.07.3.56.21 1.11.48 1.67.68 1.61.57 1.93.57 3.3-.24a.74.74 0 0 1 .52-.09 21.09 21.09 0 0 1 2.81.66 6 6 0 0 1 1.69 1 10.69 10.69 0 0 1 1 .94 1.47 1.47 0 0 1 .72.9c.2.65.43 1.44.65 2.27s.41 1.69.54 2.48c.41 1.97.23 3.01-.48 3.26z"/><path d="M22.76 20.11a3.46 3.46 0 0 1-.67.15c-1.84.25-4.65-.47-5-1.08a1.93 1.93 0 0 1 .11-1c0-.15.09-.32.15-.49l.06-.19v-.42l.11-.29.09-.22.09-.23.1-.23v-.12l.05-.12.1-.24.11-.24.05-.12.07-.16a20.65 20.65 0 0 1 1.38-2.53l.05-.08a1.18 1.18 0 0 1 2.15.25c.12.4.26.85.39 1.32.97 2.51 1.63 5.69.61 6.04z"/><circle cx="16.82" cy="11.19" r=".69"/><path d="M11.34 9.27s-.41 1.57-1.65 1.34c-.68-.12.58-1.69.58-1.69z"/><ellipse cx="12.08" cy="24.58" rx="1.66" ry="1.26" transform="rotate(-69.61 12.08 24.581)"/></g></symbol><symbol id="paws" viewBox="0 0 257 257"><g data-name="Layer 1"><path d="M80.49 168.91h-.34c-8.66 0-24.68 15.48-34.86 29.91a41.09 41.09 0 0 0-7.71 23.92c-.23 10.21 2.46 18.77 16.52 18.92 9.64.1 12.31-6.71 19.9-11.2a14.54 14.54 0 0 1 6.75-1.34 14.54 14.54 0 0 1 6.75 1.34c7.59 4.49 10 11.3 19.63 11.2 14.07-.15 15.58-8.35 15.57-18.56a41 41 0 0 0-8-24.36C104.26 184.32 89 169 80.49 168.91z"/><ellipse cx="33.37" cy="176.13" rx="13.01" ry="19.35"/><ellipse cx="60.2" cy="146.79" rx="14.5" ry="21.56"/><ellipse cx="128.04" cy="176.13" rx="13.01" ry="19.35"/><ellipse cx="101.21" cy="146.79" rx="14.5" ry="21.56"/><path d="M175.83 59h-.34c-8.66 0-24.68 15.48-34.86 29.91a41.09 41.09 0 0 0-7.71 23.92c-.23 10.21 2.46 18.77 16.52 18.92 9.64.1 12.31-6.71 19.9-11.2a14.54 14.54 0 0 1 6.75-1.34 14.54 14.54 0 0 1 6.75 1.34c7.59 4.49 10 11.3 19.63 11.2 14.07-.15 15.58-8.35 15.57-18.56a41 41 0 0 0-8-24.36C199.6 74.43 184.37 59.11 175.83 59z"/><ellipse cx="128.71" cy="66.24" rx="13.01" ry="19.35"/><ellipse cx="155.54" cy="36.9" rx="14.5" ry="21.56"/><ellipse cx="223.38" cy="66.24" rx="13.01" ry="19.35"/><ellipse cx="196.55" cy="36.9" rx="14.5" ry="21.56"/></g></symbol><symbol id="logo-256px" viewBox="0 0 256 256"><defs><style>.cls-1{fill:#231f20}.cls-2{fill:none;stroke:#231f20;stroke-miterlimit:10;stroke-width:2.83px}</style></defs><g id="Layer_3" data-name="Layer 3"><path d="M212.67 125.63c-11.7-16.54-9.94-25-7.67-30.42.68-1.65 3.12-5 4.14-9.65a19.21 19.21 0 0 0 .06-8 92.77 92.77 0 0 0-4.59-15.62c-8.69-22-24.76-35.82-42.66-42.49-20.3-7.57-43-6-59.95 3.06V7.85a3.23 3.23 0 0 0-3.23-3.23h-20.6a3.23 3.23 0 0 0-3.23 3.23v38.9L41.56 80a3.26 3.26 0 0 0 2.3 5.56h20.86c-3.87 36.54 10.84 64.21 21.14 80q-.16-1.59-.33-3.16c-.68-6.54 1.26-12.15 6.43-16.61 1.93-1.67 3.28-4 4.85-6.1 2.28-3 4.65-6 6.73-9.11.56-.85 1.13-1.7 1.7-2.56 22.73 23.35 65.81 18.06 67.93 17.78.17.52.35 1.05.54 1.58.33.87.19 1.91.43 2.82 1.2 4.56 4.28 26 8.35 33.58 10.22-7 20.37 1.16 17-12.29-.41-1.6-.72-3-1-4.15-2.1-10.34 1.7-5.87 2.48-11.11.34-2.31-3.81-4.22-3.81-4.22 2.22-.45 6.89-4.16 5.56-6.38-.9-1.49-1.41-5-1.64-7.11a1.89 1.89 0 0 1 1-1.9c5.55-2.76 7.64-3.21 9.82-5a4.44 4.44 0 0 0 .77-5.99zm-36-5.09a23.88 23.88 0 0 1-4.86 1.05 80.49 80.49 0 0 0-.69 11.37c-31.06 2.66-50-8.46-59.82-17.1 1.44-4.35 2.53-8.84 3.9-13.22 1.8-5.64.58-10.13-4.2-13.93a162.18 162.18 0 0 1-12.68-11.48c-4.72-4.67-6.94-9.79-6.63-15.31.23-4.26 2-8.77 5.24-13.5 1.93.54 4.21 1 6.34 1.8 3.35 1.24 6.56 2.86 9.92 4.06 9.53 3.39 11.44 3.39 19.6-1.41a4.36 4.36 0 0 1 3.11-.51c5.43 1.12 11.25 2 16.69 3.89a35.47 35.47 0 0 1 10 5.66 63.39 63.39 0 0 1 6.18 5.59 8.69 8.69 0 0 1 4.28 5.36c1.19 3.84 2.57 8.54 3.83 13.44s2.43 10 3.18 14.7c1.94 11.88.88 18.09-3.35 19.54z"/><path d="M173.11 118.9a20.51 20.51 0 0 1-4 .9c-10.94 1.49-27.56-2.81-29.41-6.43-.41-.81-.15-2.93.63-5.89.23-.9.52-1.88.86-2.93l.37-1.16.07-.2c.09-.28.19-.57.29-.86l.28-.81.3-.83c.2-.55.42-1.12.63-1.69s.34-.89.51-1.33.36-.9.54-1.36l.57-1.38.3-.7.3-.7c.2-.47.4-.94.61-1.42s.42-.95.64-1.43l.33-.72.44-1a122.48 122.48 0 0 1 8.2-15l.32-.49c3-4.5 10.69-5.18 12.75 1.5.74 2.4 1.53 5 2.31 7.82 4.3 15.21 8.23 34.03 2.16 36.11z"/><circle cx="137.86" cy="65.98" r="4.06"/><path d="M105.36 54.58s-2.45 9.29-9.79 7.95c-4-.74 3.42-10 3.42-10z"/><ellipse cx="109.76" cy="145.41" rx="9.86" ry="7.47" transform="rotate(-69.61 109.76 145.41)"/></g><g id="Layer_1" data-name="Layer 1"><path d="M61 192.63h-3.3v-3.12h10.15v3.12h-3.16v18.65h7.77v-8.47h3.45v11.59H57.66v-3.12H61zm40.36-3.51A12.42 12.42 0 0 1 114.22 202c0 7.48-5.39 12.83-12.86 12.83S88.5 209.49 88.5 202a12.4 12.4 0 0 1 12.86-12.88zm0 22.39c4.95 0 8.76-4.18 8.76-9.53s-3.81-9.57-8.76-9.57-8.76 4.18-8.76 9.59 3.81 9.51 8.76 9.51zm32.45-8.43l-7.4-10.45h-3v-3.12h10.23v3.12h-3.12l5.46 7.66 5-7.66h-3.12v-3.12h9.93v3.12h-3.3l-6.93 10.45v8.21H141v3.12h-10.52v-3.12h3.34zm30.62 2.56l-1.94 5.64h3v3.12h-9.82v-3.12h3l6.82-19h-2.89v-2.79h12.72v2.79h-2.93l6.71 19h2.79v3.12h-9.75v-3.12h3.08l-1.83-5.64zm4.69-13.34h-.33l-3.45 10.45h7.07zm29.12.33h-3.3v-3.12h10.19v3.12H202v18.65h7.77v-8.47h3.45v11.59h-18.28v-3.12h3.3zm-114.3 58.42h-7.59l-5.61-10.92h-2.86v6.71H71v4.21H58v-4.21h3.4v-16.46H58v-4.21h15.5c4.84 0 7.48 3.19 7.48 7 0 2.86-1.39 4.87-4.29 6.19l4 7.51h3.23zm-13.45-14.91c2.9 0 3.74-1.61 3.74-2.93a2.78 2.78 0 0 0-3-2.82h-3.3v5.75zm17.15 10.7h2.93v-16.46h-2.93v-4.21h21.88V234h-4.73v-3.66h-7.73v5.72h6.23v4.21h-6.23v6.52h7.73v-3.7h4.73v7.92H87.64zm27.36-4.25h4.21c-.07 2.68 1.65 4.51 3.81 4.51a2.71 2.71 0 0 0 2.75-2.68c0-4.54-11-3.92-11-11.73a6.43 6.43 0 0 1 6.71-6.78 5.18 5.18 0 0 1 4.54 2.31h.07v-2.05h4.18v7.55h-4.18c-.33-2.27-1.69-3.66-3.59-3.66a2.19 2.19 0 0 0-2.46 2c0 4 11.47 3.12 11.47 11.91 0 5.94-4.58 7.4-7.22 7.4a5.65 5.65 0 0 1-5-2.42h-.07v2.09H115zm44.41-16.42v8.76h-4.21a8.35 8.35 0 0 0-1.91-3.08 6 6 0 0 0-4.29-1.65c-4.47 0-7.4 3.37-7.4 8.47 0 4.84 2.86 8.17 7 8.17 3.45 0 6-2.38 6.93-6.49l4.91 2.35c-1.83 6.71-7.4 8.69-12.31 8.69-10.63 0-13.49-7.37-13.49-12.79 0-7.59 5.31-12.83 13.08-12.83a11.48 11.48 0 0 1 7.48 2.35v-1.94zm4.59 0h11.58v4.21h-2.16V243c0 2.46.73 4.1 3.23 4.1 2.09 0 3.45-1.06 3.45-3.88v-12.84h-2.05v-4.21h9.6v4.21h-3.12v13.93c0 5.79-5.06 7-8.58 7-4.87 0-9-1.87-9-8v-13H164zm27.64 20.67h2.93v-16.46h-2.93v-4.21h21.88V234h-4.73v-3.66h-7.73v5.72h6.23v4.21h-6.23v6.52h7.73v-3.7h4.73v7.92h-21.88z" class="cls-1"/><path d="M57.14 220.47h156.38" class="cls-2"/></g></symbol><symbol id="valid-paw" viewBox="0 0 120.68 116.42"><defs><style>.cls-1{fill:#231f20}</style></defs><g id="Layer_1" data-name="Layer 1"><path d="M60.12 43.68h-.34c-8.66 0-24.68 15.48-34.86 29.91a41.09 41.09 0 0 0-7.71 23.91c-.23 10.21 2.46 18.77 16.52 18.92 9.64.1 12.31-6.71 19.9-11.2a14.54 14.54 0 0 1 6.75-1.34 14.54 14.54 0 0 1 6.75 1.34c7.59 4.49 10 11.3 19.63 11.2 14.07-.15 15.58-8.35 15.57-18.56a41 41 0 0 0-8-24.36C83.89 59.1 68.67 43.78 60.12 43.68z" class="cls-1"/><ellipse cx="13.01" cy="50.9" class="cls-1" rx="13.01" ry="19.35"/><ellipse cx="39.84" cy="21.56" class="cls-1" rx="14.5" ry="21.56"/><ellipse cx="107.67" cy="50.9" class="cls-1" rx="13.01" ry="19.35"/><ellipse cx="80.84" cy="21.56" class="cls-1" rx="14.5" ry="21.56"/></g></symbol></svg>