<svg xmlns="http://www.w3.org/2000/svg" viewBox="0 0 256 256"><defs><style>.cls-1{fill:#231f20;}.cls-2{fill:none;stroke:#231f20;stroke-miterlimit:10;stroke-width:2.83px;}</style></defs><title>Logo</title><g id="Layer_3" data-name="Layer 3"><path d="M209.93,125.58c-11.7-16.54-9.94-25-7.67-30.42.68-1.65,3.12-5,4.14-9.65a19.21,19.21,0,0,0,.06-8,92.77,92.77,0,0,0-4.59-15.62c-8.69-22-24.76-35.82-42.66-42.49-20.3-7.57-43-6-59.95,3.06V7.8A3.23,3.23,0,0,0,96,4.57H75.42A3.23,3.23,0,0,0,72.19,7.8V46.7L38.81,79.94a3.26,3.26,0,0,0,2.3,5.56H62c-3.87,36.54,10.84,64.21,21.14,80q-.16-1.59-.33-3.16c-.68-6.54,1.26-12.15,6.43-16.61,1.93-1.67,3.28-4,4.85-6.1,2.28-3,4.65-6,6.73-9.11.56-.85,1.13-1.7,1.7-2.56,22.73,23.35,65.81,18.06,67.93,17.78.17.52.35,1.05.54,1.58.33.87.19,1.91.43,2.82,1.2,4.56,4.28,26,8.35,33.58,10.22-7,20.37,1.16,17-12.29-.41-1.6-.72-3-1-4.15-2.1-10.34,1.7-5.87,2.48-11.11.34-2.31-3.81-4.22-3.81-4.22,2.22-.45,6.89-4.16,5.56-6.38-.9-1.49-1.41-5-1.64-7.11a1.89,1.89,0,0,1,1-1.9c5.55-2.76,7.64-3.21,9.82-5A4.44,4.44,0,0,0,209.93,125.58Zm-36-5.09a23.88,23.88,0,0,1-4.86,1.05,80.49,80.49,0,0,0-.69,11.37c-31.06,2.66-50-8.46-59.82-17.1,1.44-4.35,2.53-8.84,3.9-13.22,1.77-5.63.55-10.13-4.19-13.93A162.18,162.18,0,0,1,95.57,77.18c-4.72-4.67-6.94-9.79-6.63-15.31.23-4.26,2-8.77,5.24-13.5,1.93.54,4.21,1,6.34,1.8,3.35,1.24,6.56,2.86,9.92,4.06,9.53,3.39,11.44,3.39,19.6-1.41a4.36,4.36,0,0,1,3.11-.51c5.43,1.12,11.25,2,16.69,3.89a35.47,35.47,0,0,1,10,5.66,63.39,63.39,0,0,1,6.18,5.59,8.69,8.69,0,0,1,4.28,5.36c1.19,3.84,2.57,8.54,3.83,13.44s2.43,10,3.18,14.7C179.28,112.83,178.19,119,174,120.49Z"/><path d="M170.36,118.85a20.51,20.51,0,0,1-4,.9c-10.94,1.49-27.56-2.81-29.41-6.43-.41-.81-.15-2.93.63-5.89.23-.9.52-1.88.86-2.93a.14.14,0,0,0,0,0l.37-1.16.07-.2c.09-.28.19-.57.29-.86l.28-.81.3-.83c.2-.55.42-1.12.63-1.69s.34-.89.51-1.33.36-.9.54-1.36l.57-1.38.3-.7.3-.7c.2-.47.4-.94.61-1.42s.42-.95.64-1.43l.33-.72.44-1h0a122.48,122.48,0,0,1,8.2-15h0l.32-.49c3-4.5,10.69-5.18,12.75,1.5.74,2.4,1.53,5,2.31,7.82v0C172.5,97.91,176.43,116.77,170.36,118.85Z"/><circle cx="135.11" cy="65.93" r="4.06"/><path d="M102.61,54.53s-2.45,9.29-9.79,7.95c-4-.74,3.42-10,3.42-10Z"/><ellipse cx="107.01" cy="145.36" rx="9.86" ry="7.47" transform="translate(-66.53 195.02) rotate(-69.61)"/></g><g id="Layer_1" data-name="Layer 1"><path class="cls-1" d="M58.21,192.58h-3.3v-3.12H65.1v3.12H61.94v18.65h7.77v-8.47h3.45v11.58H54.91v-3.12h3.3Z"/><path class="cls-1" d="M98.61,189.06a12.42,12.42,0,0,1,12.86,12.86c0,7.48-5.39,12.83-12.86,12.83s-12.86-5.31-12.86-12.83A12.4,12.4,0,0,1,98.61,189.06Zm0,22.39c4.95,0,8.76-4.18,8.76-9.53s-3.81-9.57-8.76-9.57-8.76,4.18-8.76,9.57S93.66,211.46,98.61,211.46Z"/><path class="cls-1" d="M131.06,203l-7.4-10.45h-3v-3.12h10.23v3.12h-3.12l5.46,7.66,5-7.66h-3.12v-3.12H145v3.12h-3.3L134.8,203v8.21h3.41v3.12H127.73v-3.12h3.34Z"/><path class="cls-1" d="M161.68,205.59l-1.94,5.64h3v3.12H153v-3.12h3l6.82-19h-2.93v-2.79h12.72v2.79h-2.93l6.71,19h2.79v3.12h-9.75v-3.12h3.08l-1.83-5.64Zm4.69-13.34H166L162.6,202.7h7.07Z"/><path class="cls-1" d="M195.49,192.58h-3.3v-3.12h10.19v3.12h-3.15v18.65H207v-8.47h3.45v11.58H192.19v-3.12h3.3Z"/><path class="cls-1" d="M81.19,251H73.6L68,240.08H65.13v6.71h3.12V251h-13v-4.21h3.41V230.33H55.24v-4.21h15.5c4.84,0,7.48,3.19,7.48,7,0,2.86-1.39,4.87-4.29,6.19l4,7.51h3.23ZM67.74,236.09c2.9,0,3.74-1.61,3.74-2.93a2.78,2.78,0,0,0-3-2.82h-3.3v5.75Z"/><path class="cls-1" d="M84.89,246.79h2.93V230.33H84.89v-4.21h21.88V234H102v-3.66H94.31v5.72h6.23v4.21H94.31v6.52H102v-3.7h4.73V251H84.89Z"/><path class="cls-1" d="M112.24,242.54h4.21c-.07,2.68,1.65,4.51,3.81,4.51a2.71,2.71,0,0,0,2.75-2.68c0-4.54-11-3.92-11-11.73a6.43,6.43,0,0,1,6.71-6.78,5.18,5.18,0,0,1,4.54,2.31h.07v-2.05h4.18v7.55h-4.18c-.33-2.27-1.69-3.66-3.59-3.66a2.19,2.19,0,0,0-2.46,2c0,4,11.47,3.12,11.47,11.91,0,5.94-4.58,7.4-7.22,7.4a5.65,5.65,0,0,1-5-2.42h-.07V251h-4.21Z"/><path class="cls-1" d="M156.66,226.12v8.76h-4.21a8.35,8.35,0,0,0-1.91-3.08,6,6,0,0,0-4.29-1.65c-4.47,0-7.4,3.37-7.4,8.47,0,4.84,2.86,8.17,7,8.17,3.45,0,6-2.38,6.93-6.49l4.91,2.35c-1.83,6.71-7.4,8.69-12.31,8.69-10.63,0-13.49-7.37-13.49-12.79,0-7.59,5.31-12.83,13.08-12.83a11.48,11.48,0,0,1,7.48,2.35v-1.94Z"/><path class="cls-1" d="M161.28,226.12h11.58v4.21H170.7V243c0,2.46.73,4.1,3.23,4.1,2.09,0,3.45-1.06,3.45-3.88V230.33h-2.05v-4.21h9.6v4.21H181.8v13.93c0,5.79-5.06,7-8.58,7-4.87,0-9-1.87-9-8v-13h-2.93Z"/><path class="cls-1" d="M188.89,246.79h2.93V230.33h-2.93v-4.21h21.88V234H206v-3.66h-7.73v5.72h6.23v4.21h-6.23v6.52H206v-3.7h4.73V251H188.89Z"/><line class="cls-2" x1="54.39" y1="220.42" x2="210.77" y2="220.42"/></g></svg>