<svg xmlns="http://www.w3.org/2000/svg" viewBox="0 0 64 64"><defs><style>.cls-1{fill:#231f20;}.cls-2{fill:none;stroke:#231f20;stroke-miterlimit:10;stroke-width:0.71px;}</style></defs><title>Logo</title><g id="Layer_1" data-name="Layer 1"><path d="M52.44,31.17C49.51,27,50,24.91,50.52,23.55a10.07,10.07,0,0,0,1-2.42,4.81,4.81,0,0,0,0-2,23.23,23.23,0,0,0-1.15-3.91A18.18,18.18,0,0,0,39.74,4.57a18.7,18.7,0,0,0-15,.77V1.67a.81.81,0,0,0-.81-.81H18.75a.81.81,0,0,0-.81.81v9.74L9.59,19.74a.82.82,0,0,0,.58,1.39h5.23a30.36,30.36,0,0,0,5.29,20l-.08-.79a4.56,4.56,0,0,1,1.61-4.16,9.4,9.4,0,0,0,1.21-1.53c.57-.75,1.17-1.49,1.69-2.28l.43-.64c5.69,5.85,16.48,4.52,17,4.45,0,.13.09.26.14.39s0,.48.11.71c.3,1.14,1.07,6.51,2.09,8.41C47.44,44,50,46,49.13,42.66c-.1-.4-.18-.74-.24-1-.52-2.59.43-1.47.62-2.78.09-.58-1-1.06-1-1.06.56-.11,1.73-1,1.39-1.6a5.66,5.66,0,0,1-.41-1.78.47.47,0,0,1,.26-.47,13.65,13.65,0,0,0,2.46-1.26A1.11,1.11,0,0,0,52.44,31.17Zm-9-1.27a6,6,0,0,1-1.22.26A20.16,20.16,0,0,0,42,33c-7.78.67-12.53-2.12-15-4.28.36-1.09.63-2.21,1-3.31a2.93,2.93,0,0,0-1-3.49A40.62,40.62,0,0,1,23.8,19a4.91,4.91,0,0,1-1.66-3.83,6.67,6.67,0,0,1,1.31-3.38c.48.13,1.05.25,1.59.45.84.31,1.64.72,2.48,1,2.39.85,2.86.85,4.91-.35a1.09,1.09,0,0,1,.78-.13,31.33,31.33,0,0,1,4.18,1,8.88,8.88,0,0,1,2.52,1.42,15.87,15.87,0,0,1,1.55,1.4A2.18,2.18,0,0,1,42.53,18c.3,1,.64,2.14,1,3.37s.61,2.51.8,3.68C44.76,28,44.49,29.53,43.43,29.89Z"/><path d="M42.53,29.48a5.14,5.14,0,0,1-1,.23c-2.74.37-6.9-.7-7.36-1.61a2.86,2.86,0,0,1,.16-1.47c.06-.23.13-.47.22-.73h0l.09-.29,0-.05.07-.21.07-.2.07-.21.16-.42.13-.33.14-.34.14-.35.07-.17.08-.18.15-.35.16-.36.08-.18.11-.24h0a30.67,30.67,0,0,1,2.05-3.75h0l.08-.12a1.75,1.75,0,0,1,3.19.38c.19.6.38,1.26.58,2h0C43.07,24.24,44.05,29,42.53,29.48Z"/><circle cx="33.7" cy="16.23" r="1.02"/><path d="M25.56,13.37s-.61,2.33-2.45,2c-1-.19.86-2.51.86-2.51Z"/><ellipse cx="26.66" cy="36.12" rx="2.47" ry="1.87" transform="translate(-16.48 48.53) rotate(-69.61)"/><path class="cls-1" d="M14.44,47.95h-.83v-.78h2.55v.78h-.79v4.67h1.95V50.5h.86v2.9H13.62v-.78h.83Z"/><path class="cls-1" d="M24.56,47.07a3.22,3.22,0,1,1,0,6.43,3.22,3.22,0,1,1,0-6.43Zm0,5.61a2.4,2.4,0,1,0-2.19-2.39A2.26,2.26,0,0,0,24.56,52.68Z"/><path class="cls-1" d="M32.69,50.56l-1.85-2.62h-.76v-.78h2.56v.78h-.78l1.37,1.92,1.26-1.92H33.7v-.78h2.49v.78h-.83l-1.73,2.62v2.06h.85v.78H31.85v-.78h.84Z"/><path class="cls-1" d="M40.36,51.21l-.49,1.41h.76v.78H38.17v-.78h.75l1.71-4.75H39.9v-.7h3.19v.7h-.73L44,52.62h.7v.78H42.28v-.78h.77l-.46-1.41Zm1.17-3.34h-.08l-.86,2.62h1.77Z"/><path class="cls-1" d="M48.82,47.95H48v-.78h2.55v.78h-.79v4.67H51.7V50.5h.86v2.9H48v-.78h.83Z"/><path class="cls-1" d="M20.2,62.58H18.3l-1.4-2.74h-.72v1.68H17v1.06H13.7V61.52h.85V57.4H13.7V56.35h3.88a1.72,1.72,0,0,1,1.87,1.74,1.61,1.61,0,0,1-1.07,1.55l1,1.88h.81Zm-3.37-3.74c.73,0,.94-.4.94-.73A.7.7,0,0,0,17,57.4h-.83v1.44Z"/><path class="cls-1" d="M21.13,61.52h.73V57.4h-.73V56.35h5.48v2H25.42V57.4H23.48v1.43H25v1.06H23.48v1.63h1.94V60.6h1.18v2H21.13Z"/><path class="cls-1" d="M28,60.46H29a1,1,0,0,0,1,1.13.68.68,0,0,0,.69-.67c0-1.14-2.76-1-2.76-2.94a1.61,1.61,0,0,1,1.68-1.7,1.3,1.3,0,0,1,1.14.58h0v-.51h1v1.89h-1c-.08-.57-.42-.92-.9-.92a.55.55,0,0,0-.61.5c0,1,2.87.78,2.87,3a1.73,1.73,0,0,1-1.81,1.85A1.42,1.42,0,0,1,29,62.06h0v.52H28Z"/><path class="cls-1" d="M39.1,56.35v2.19H38a2.09,2.09,0,0,0-.48-.77,1.5,1.5,0,0,0-1.07-.41,1.88,1.88,0,0,0-1.85,2.12,1.83,1.83,0,0,0,1.75,2,1.81,1.81,0,0,0,1.73-1.62l1.23.59a2.94,2.94,0,0,1-3.08,2.18,3,3,0,0,1-3.38-3.2,3.09,3.09,0,0,1,3.28-3.21,2.87,2.87,0,0,1,1.87.59v-.49Z"/><path class="cls-1" d="M40.26,56.35h2.9V57.4h-.54v3.17c0,.61.18,1,.81,1s.86-.27.86-1V57.4h-.51V56.35h2.4V57.4H45.4v3.49c0,1.45-1.27,1.76-2.15,1.76-1.22,0-2.26-.47-2.26-2V57.4h-.73Z"/><path class="cls-1" d="M47.17,61.52h.73V57.4h-.73V56.35h5.48v2H51.47V57.4H49.53v1.43h1.56v1.06H49.53v1.63h1.94V60.6h1.18v2H47.17Z"/><line class="cls-2" x1="13.49" y1="54.92" x2="52.65" y2="54.92"/></g></svg>