<?xml version="1.0" encoding="utf-8"?>
<!-- Generator: Adobe Illustrator 21.0.2, SVG Export Plug-In . SVG Version: 6.00 Build 0)  -->
<!DOCTYPE svg PUBLIC "-//W3C//DTD SVG 1.1//EN" "http://www.w3.org/Graphics/SVG/1.1/DTD/svg11.dtd">
<svg version="1.1" id="Layer_1" xmlns="http://www.w3.org/2000/svg" xmlns:xlink="http://www.w3.org/1999/xlink" x="0px" y="0px"
	 viewBox="0 0 16 16" style="enable-background:new 0 0 16 16;" xml:space="preserve">
<title>Logo</title>
<g id="Layer_1_1_">
	<path d="M15.2,10.6c-1-1.4-0.8-2.1-0.6-2.5c0.2-0.3,0.3-0.5,0.3-0.8c0-0.2,0-0.5,0-0.7c-0.1-0.4-0.2-0.9-0.4-1.3
		c-0.6-1.6-1.9-2.9-3.6-3.6C9.3,1.1,7.5,1.2,5.9,2V0.7c0-0.1-0.1-0.3-0.3-0.3H3.9c-0.1,0-0.3,0.1-0.3,0.3l0,0V4L0.8,6.8
		C0.8,6.9,0.8,7.1,0.9,7.2c0,0,0.1,0,0.1,0h1.8C2.6,9.6,3.2,12,4.6,13.9v-0.3c-0.1-0.5,0.1-1.1,0.5-1.4c0.2-0.2,0.3-0.3,0.4-0.5
		c0.2-0.3,0.4-0.5,0.6-0.8l0.1-0.2c1.9,2,5.5,1.5,5.7,1.5v0.1c0,0.1,0,0.2,0,0.2c0.1,1,0.4,1.9,0.7,2.8c0.9-0.6,1.7,0.1,1.4-1
		L13.9,14c-0.2-0.9,0.1-0.5,0.2-0.9c0-0.2-0.3-0.3-0.3-0.3s0.6-0.3,0.5-0.5c-0.1-0.2-0.1-0.4-0.1-0.6c0-0.1,0-0.1,0.1-0.2
		c0.3-0.1,0.6-0.3,0.8-0.4C15.2,10.9,15.2,10.8,15.2,10.6z M12.2,10.2c-0.1,0-0.3,0.1-0.4,0.1c0,0.3,0,0.6,0,1
		c-1.8,0.3-3.6-0.3-5-1.4C6.9,9.4,7,9,7.1,8.7c0.2-0.5-0.1-1-0.5-1.2c-0.4-0.3-0.7-0.6-1.1-1C5.2,6.2,5,5.7,5,5.2
		c0-0.4,0.2-0.8,0.4-1.1c0.2,0,0.3,0.1,0.5,0.2c0.2,0.1,0.5,0.2,0.8,0.3c0.5,0.3,1.2,0.3,1.6-0.1c0.1,0,0.2,0,0.3,0
		c0.5,0.1,0.9,0.2,1.4,0.3c0.3,0.1,0.6,0.3,0.8,0.5c0.2,0.1,0.4,0.3,0.5,0.5c0.2,0.1,0.3,0.3,0.4,0.4c0.1,0.3,0.2,0.7,0.3,1.1
		c0.1,0.4,0.2,0.8,0.3,1.2C12.6,9.5,12.5,10,12.2,10.2z"/>
	<path d="M12.2,9.9l-0.6,0.2c-0.7,0.1-1.6-0.1-2.3-0.4C9,9.6,8.8,9.3,8.9,9c0.2-0.5,0.5-1.3,0.5-1.3l0,0c0.2-0.4,0.4-0.9,0.7-1.3
		l0,0l0,0c0.2-0.3,0.5-0.6,0.8-0.5C11,6,11.1,6.1,11.2,6.2C11.2,6.2,12.6,9.7,12.2,9.9z"/>
	<circle cx="8.9" cy="5.6" r="0.3"/>
	<path d="M6.2,4.6c0,0-0.2,0.8-0.8,0.7C5,5.3,5.6,4.5,5.6,4.5L6.2,4.6z"/>
	<ellipse transform="matrix(0.3484 -0.9373 0.9373 0.3484 -7.2181 14.1191)" cx="6.5" cy="12.3" rx="0.8" ry="0.6"/>
</g>
</svg>
