<?xml version="1.0" encoding="utf-8"?>
<!-- Generator: Adobe Illustrator 21.0.2, SVG Export Plug-In . SVG Version: 6.00 Build 0)  -->
<!DOCTYPE svg PUBLIC "-//W3C//DTD SVG 1.1//EN" "http://www.w3.org/Graphics/SVG/1.1/DTD/svg11.dtd">
<svg version="1.1" id="Layer_1" xmlns="http://www.w3.org/2000/svg" xmlns:xlink="http://www.w3.org/1999/xlink" x="0px" y="0px"
	 viewBox="0 0 32 32" style="enable-background:new 0 0 32 32;" xml:space="preserve">
<title>Logo</title>
<g id="Layer_1_1_">
	<path d="M28.7,20.6c-1.8-2.5-1.5-3.7-1.2-4.6c0.3-0.5,0.5-0.9,0.6-1.5c0.1-0.4,0.1-0.8,0-1.2c-0.2-0.8-0.4-1.6-0.7-2.4
		C26.4,8,24,5.6,21,4.5c-2.9-1.1-6.2-0.9-9,0.5V2.9c0-0.3-0.2-0.5-0.5-0.5l0,0H8.4C8.2,2.4,8,2.6,8,2.9c0,0,0,0,0,0v5.9l-5,5
		c-0.2,0.2-0.2,0.5,0,0.7c0.1,0.1,0.2,0.2,0.4,0.1h3.1C6,18.8,7.1,23.1,9.6,26.6v-0.5c-0.1-0.9,0.2-1.9,1-2.5
		c0.3-0.3,0.5-0.6,0.7-0.9c0.3-0.4,0.7-0.9,1-1.4l0.3-0.4c3.4,3.5,10,2.7,10.2,2.7l0.1,0.2c0,0.1,0,0.3,0.1,0.4
		c0.3,1.7,0.7,3.4,1.2,5.1c1.5-1,3.1,0.2,2.6-1.9c0-0.2-0.1-0.4-0.1-0.6c-0.3-1.6,0.3-0.9,0.4-1.7c0-0.3-0.6-0.6-0.6-0.6
		c0.3-0.1,1-0.6,0.8-1c-0.1-0.3-0.2-0.7-0.2-1.1c0-0.1,0.1-0.2,0.2-0.3c0.5-0.2,1-0.5,1.5-0.8C28.9,21.3,28.9,20.9,28.7,20.6z
		 M23.3,19.8C23,19.9,22.8,20,22.5,20c-0.1,0.6-0.1,1.1-0.1,1.7c-3.2,0.4-6.5-0.5-9-2.6c0.2-0.7,0.4-1.3,0.6-2
		c0.3-0.8,0-1.6-0.6-2.1c-0.7-0.5-1.3-1.1-1.9-1.7c-0.7-0.6-1-1.4-1-2.3c0.1-0.7,0.3-1.4,0.8-2c0.3,0.1,0.6,0.1,1,0.3
		c0.3,0.1,1,0.4,1.5,0.6c0.9,0.6,2.1,0.5,3-0.2c0.1-0.1,0.3-0.1,0.5-0.1c0.8,0.1,1.7,0.3,2.5,0.6c0.5,0.2,1.1,0.5,1.5,0.8
		c0.3,0.3,0.6,0.5,0.9,0.8c0.3,0.2,0.6,0.5,0.6,0.8c0.2,0.6,0.4,1.2,0.6,2c0.2,0.8,0.4,1.5,0.5,2.2C24.1,18.7,23.9,19.6,23.3,19.8z"
		/>
	<path d="M22.7,19.6c-0.2,0.1-0.4,0.1-0.6,0.1c-1.6,0.2-4.1-0.4-4.4-1c0-0.3,0-0.6,0.1-0.9c0-0.1,0.1-0.3,0.1-0.4l0,0v-0.2l0,0v-0.1
		V17v-0.1l0.1-0.2l0.1-0.2l0.1-0.2l0.1-0.2v-0.1v-0.1l0.1-0.2l0.1-0.2v-0.1l0.1-0.1l0,0c0.4-0.8,0.8-1.5,1.2-2.3l0,0v-0.1
		c0-0.6,0.6-1.1,1.2-1c0.6,0,1.1,0.6,1,1.2l0,0c0.1,0.4,0.2,0.8,0.3,1.2l0,0C23.1,16.4,23.7,19.3,22.7,19.6z"/>
	<circle cx="17.4" cy="11.6" r="0.6"/>
	<path d="M12.5,9.9c0,0-0.4,1.4-1.5,1.2c-0.6-0.1,0.5-1.5,0.5-1.5L12.5,9.9z"/>
	<ellipse transform="matrix(0.3484 -0.9373 0.9373 0.3484 -13.5044 27.7346)" cx="13.2" cy="23.6" rx="1.5" ry="1.1"/>
</g>
</svg>
